<svg width="14" height="12" viewBox="0 0 14 12" fill="none" xmlns="http://www.w3.org/2000/svg">
<path d="M2.55791 7.31157C2.4082 7.18016 2.28843 7.07475 2.20065 6.99739V6.95147L2.02492 6.77574C1.33111 6.08193 0.933984 5.16547 0.933984 4.2V4.07612C0.995453 2.2062 2.59252 0.666667 4.46732 0.666667C4.7456 0.666667 5.11481 0.763435 5.48286 0.961616C5.83019 1.14864 6.13506 1.40383 6.3375 1.68842C6.63199 2.31494 7.53978 2.30366 7.81218 1.65457C7.97992 1.36092 8.27391 1.0955 8.62623 0.899018C8.99385 0.693998 9.36031 0.6 9.60065 0.6C11.53 0.6 13.0723 2.12742 13.134 4.07581V4.2C13.134 5.24201 12.7306 6.14473 12.0619 6.75771L11.8673 6.93606V6.97957C11.7662 7.06525 11.6359 7.17766 11.484 7.30974C11.1469 7.6029 10.6955 7.99999 10.2039 8.43321C10.0462 8.5722 9.88439 8.71492 9.72079 8.85919C8.86455 9.61426 7.96001 10.4119 7.34664 10.9417C7.17012 11.0861 6.89785 11.0861 6.72132 10.9417C5.98911 10.3093 4.8265 9.2962 3.83715 8.43155C3.34152 7.9984 2.88978 7.60286 2.55791 7.31157Z" stroke="#c3c7cc" stroke-width="1.2"/>
</svg>
