<svg width="22" height="15" viewBox="0 0 22 15" fill="none" xmlns="http://www.w3.org/2000/svg">
<path d="M11.0031 11.5769C12.1362 11.5769 13.0985 11.1803 13.8902 10.3871C14.6819 9.59394 15.0777 8.6308 15.0777 7.4977C15.0777 6.36462 14.6811 5.40224 13.888 4.61058C13.0948 3.81891 12.1316 3.42308 10.9985 3.42308C9.86545 3.42308 8.90308 3.81966 8.11141 4.61282C7.31975 5.40601 6.92391 6.36915 6.92391 7.50225C6.92391 8.63533 7.3205 9.59771 8.11366 10.3894C8.90685 11.181 9.86999 11.5769 11.0031 11.5769ZM11.0008 10.2C10.2508 10.2 9.61331 9.93748 9.08831 9.41248C8.56331 8.88748 8.30081 8.24998 8.30081 7.49998C8.30081 6.74998 8.56331 6.11248 9.08831 5.58748C9.61331 5.06248 10.2508 4.79998 11.0008 4.79998C11.7508 4.79998 12.3883 5.06248 12.9133 5.58748C13.4383 6.11248 13.7008 6.74998 13.7008 7.49998C13.7008 8.24998 13.4383 8.88748 12.9133 9.41248C12.3883 9.93748 11.7508 10.2 11.0008 10.2ZM11.0008 14.5C8.8957 14.5 6.97039 13.9384 5.22489 12.8153C3.47937 11.6923 2.0861 10.2147 1.04509 8.38265C0.961754 8.23907 0.900854 8.09436 0.862387 7.94853C0.823921 7.80268 0.804688 7.65299 0.804688 7.49948C0.804688 7.34596 0.823921 7.19645 0.862387 7.05095C0.900854 6.90543 0.961754 6.76088 1.04509 6.6173C2.0861 4.78525 3.47937 3.30769 5.22489 2.18463C6.97039 1.06154 8.8957 0.5 11.0008 0.5C13.1059 0.5 15.0312 1.06154 16.7767 2.18463C18.5223 3.30769 19.9155 4.78525 20.9565 6.6173C21.0399 6.76088 21.1008 6.90559 21.1392 7.05143C21.1777 7.19728 21.1969 7.34696 21.1969 7.50048C21.1969 7.65399 21.1777 7.8035 21.1392 7.949C21.1008 8.09452 21.0399 8.23907 20.9565 8.38265C19.9155 10.2147 18.5223 11.6923 16.7767 12.8153C15.0312 13.9384 13.1059 14.5 11.0008 14.5ZM11.0008 13C12.8841 13 14.6133 12.5041 16.1883 11.5125C17.7633 10.5208 18.9675 9.18331 19.8008 7.49998C18.9675 5.81664 17.7633 4.47914 16.1883 3.48748C14.6133 2.49581 12.8841 1.99998 11.0008 1.99998C9.11748 1.99998 7.38831 2.49581 5.81331 3.48748C4.23831 4.47914 3.03415 5.81664 2.20081 7.49998C3.03415 9.18331 4.23831 10.5208 5.81331 11.5125C7.38831 12.5041 9.11748 13 11.0008 13Z" fill="#64748B"/>
</svg>
