<svg width="16" height="14" viewBox="0 0 16 14" fill="none" xmlns="http://www.w3.org/2000/svg">
<path d="M10 9L8 11L10 13" fill="#64748B"/>
<path d="M10 9L8 11L10 13V9Z" stroke="#64748B" stroke-linecap="round" stroke-linejoin="round"/>
<path d="M8 11H12.8462C14.0357 11 15 10.0449 15 8.86667V5.13333C15 3.95512 14.0357 3 12.8462 3H11.2308" stroke="#64748B" stroke-linecap="round" stroke-linejoin="round"/>
<path d="M6 5L8 3L6 1" fill="#64748B"/>
<path d="M6 5L8 3L6 1V5Z" stroke="#64748B" stroke-linecap="round" stroke-linejoin="round"/>
<path d="M8 3H3.15385C1.96431 3 1 3.95513 1 5.13333V8.86667C1 10.0449 1.96431 11 3.15385 11H4.76923" stroke="#64748B" stroke-linecap="round" stroke-linejoin="round"/>
</svg>
