<svg width="14" height="11" viewBox="0 0 18 15" fill="none" xmlns="http://www.w3.org/2000/svg">
<g clip-path="url(#clip0_22127_3263)">
<path d="M14.5115 12.3184H3.07821C2.83635 12.3184 2.63846 12.5152 2.63846 12.7559V13.6309C2.63846 13.8715 2.83635 14.0684 3.07821 14.0684H14.5115C14.7534 14.0684 14.9513 13.8715 14.9513 13.6309V12.7559C14.9513 12.5152 14.7534 12.3184 14.5115 12.3184ZM16.2705 3.56836C15.5422 3.56836 14.9513 4.15625 14.9513 4.88086C14.9513 5.075 14.9953 5.25547 15.0722 5.42227L13.0824 6.60898C12.6591 6.86055 12.1122 6.71836 11.8676 6.2918L9.62764 2.39258C9.92171 2.15195 10.1141 1.79102 10.1141 1.38086C10.1141 0.65625 9.5232 0.0683594 8.79487 0.0683594C8.06655 0.0683594 7.47564 0.65625 7.47564 1.38086C7.47564 1.79102 7.66803 2.15195 7.96211 2.39258L5.72216 6.2918C5.47756 6.71836 4.92788 6.86055 4.50737 6.60898L2.52028 5.42227C2.59449 5.2582 2.64121 5.075 2.64121 4.88086C2.64121 4.15625 2.0503 3.56836 1.32198 3.56836C0.593654 3.56836 0 4.15625 0 4.88086C0 5.60547 0.590905 6.19336 1.31923 6.19336C1.39069 6.19336 1.46215 6.18242 1.53086 6.17148L3.51795 11.4434H14.0718L16.0589 6.17148C16.1276 6.18242 16.1991 6.19336 16.2705 6.19336C16.9988 6.19336 17.5897 5.60547 17.5897 4.88086C17.5897 4.15625 16.9988 3.56836 16.2705 3.56836Z" fill="#FDD446"/>
</g>
<defs>
<clipPath id="clip0_22127_3263">
<rect width="17.5897" height="14" fill="white" transform="translate(0 0.0683594)"/>
</clipPath>
</defs>
</svg>
