<svg width="22" height="22" viewBox="0 0 22 22" fill="none" xmlns="http://www.w3.org/2000/svg">
<path fill-rule="evenodd" clip-rule="evenodd" d="M13.8537 1.48264C12.3295 0.171318 10.0757 0.171318 8.55158 1.48264C7.89324 2.04906 7.07079 2.38974 6.20475 2.45473C4.19979 2.6052 2.60608 4.19891 2.45561 6.20386C2.39062 7.0699 2.04995 7.89236 1.48352 8.5507C0.1722 10.0748 0.1722 12.3287 1.48352 13.8528C2.04995 14.5111 2.39062 15.3336 2.45561 16.1996C2.60608 18.2046 4.19979 19.7983 6.20475 19.9487C7.07079 20.0137 7.89324 20.3544 8.55158 20.9208C10.0757 22.2322 12.3295 22.2322 13.8537 20.9208C14.512 20.3544 15.3345 20.0137 16.2005 19.9487C18.2055 19.7983 19.7992 18.2046 19.9496 16.1996C20.0146 15.3336 20.3553 14.5111 20.9217 13.8528C22.233 12.3287 22.233 10.0748 20.9217 8.5507C20.3553 7.89236 20.0146 7.0699 19.9496 6.20386C19.7992 4.1989 18.2055 2.6052 16.2005 2.45473C15.3345 2.38974 14.512 2.04906 13.8537 1.48264ZM16.5389 8.95433C16.9545 8.49251 16.9171 7.78118 16.4552 7.36554C15.9934 6.9499 15.2821 6.98734 14.8664 7.44916L10.1909 12.6442L7.42286 10.3375C6.94555 9.93974 6.23616 10.0042 5.8384 10.4815C5.44064 10.9589 5.50513 11.6682 5.98244 12.066L9.36059 14.8811C9.94897 15.3714 10.8197 15.309 11.332 14.7397L16.5389 8.95433Z" fill="url(#paint0_linear_14_79115)"/>
<defs>
<linearGradient id="paint0_linear_14_79115" x1="11.2026" y1="0.499023" x2="11.2026" y2="21.9042" gradientUnits="userSpaceOnUse">
<stop stop-color="#E8590C"/>
<stop offset="1" stop-color="#FFD43B"/>
</linearGradient>
</defs>
</svg>
