<?xml version="1.0" encoding="UTF-8"?>
<svg xmlns="http://www.w3.org/2000/svg" xmlns:xlink="http://www.w3.org/1999/xlink" width="24px" height="24px" viewBox="0 0 24 24" version="1.1">
<defs>
<filter id="alpha" filterUnits="objectBoundingBox" x="0%" y="0%" width="100%" height="100%">
  <feColorMatrix type="matrix" in="SourceGraphic" values="0 0 0 0 1 0 0 0 0 1 0 0 0 0 1 0 0 0 1 0"/>
</filter>
<mask id="mask0">
  <g filter="url(#alpha)">
<rect x="0" y="0" width="24" height="24" style="fill:rgb(0%,0%,0%);fill-opacity:0.996078;stroke:none;"/>
  </g>
</mask>
<clipPath id="clip1">
  <rect x="0" y="0" width="24" height="24"/>
</clipPath>
<g id="surface5" clip-path="url(#clip1)">
<path style=" stroke:none;fill-rule:evenodd;fill:rgb(0%,72.941176%,0%);fill-opacity:1;" d="M 10.898438 -0.0234375 C 11.617188 -0.0234375 12.335938 -0.0234375 13.054688 -0.0234375 C 17.257812 0.488281 20.421875 2.566406 22.546875 6.210938 C 23.328125 7.6875 23.804688 9.25 23.976562 10.898438 C 23.976562 11.617188 23.976562 12.335938 23.976562 13.054688 C 23.464844 17.257812 21.386719 20.421875 17.742188 22.546875 C 16.265625 23.328125 14.703125 23.804688 13.054688 23.976562 C 12.335938 23.976562 11.617188 23.976562 10.898438 23.976562 C 6.695312 23.464844 3.53125 21.386719 1.40625 17.742188 C 0.625 16.265625 0.148438 14.703125 -0.0234375 13.054688 C -0.0234375 12.335938 -0.0234375 11.617188 -0.0234375 10.898438 C 0.488281 6.695312 2.566406 3.53125 6.210938 1.40625 C 7.6875 0.625 9.25 0.148438 10.898438 -0.0234375 Z M 10.898438 -0.0234375 "/>
</g>
</defs>
<g id="surface1">
<use xlink:href="#surface5" mask="url(#mask0)"/>
<path style=" stroke:none;fill-rule:evenodd;fill:rgb(99.607843%,99.607843%,99.607843%);fill-opacity:1;" d="M 18.351562 6.679688 C 19.472656 6.589844 20.113281 7.097656 20.273438 8.203125 C 20.269531 8.570312 20.167969 8.90625 19.96875 9.210938 C 16.476562 12.484375 12.984375 15.757812 9.492188 19.03125 C 9.34375 19.027344 9.226562 18.957031 9.140625 18.820312 C 7.375 16.929688 5.609375 15.039062 3.84375 13.148438 C 3.171875 12.230469 3.273438 11.410156 4.148438 10.6875 C 4.820312 10.316406 5.460938 10.363281 6.070312 10.828125 C 7.21875 12.09375 8.390625 13.335938 9.585938 14.554688 C 12.28125 12.023438 14.984375 9.5 17.695312 6.984375 C 17.902344 6.84375 18.121094 6.742188 18.351562 6.679688 Z M 18.351562 6.679688 "/>
</g>
</svg>
