<?xml version="1.0" encoding="UTF-8"?>
<svg xmlns="http://www.w3.org/2000/svg" xmlns:xlink="http://www.w3.org/1999/xlink" width="18px" height="18px" viewBox="0 0 24 24" version="1.1">
<defs>
<filter id="alpha" filterUnits="objectBoundingBox" x="0%" y="0%" width="100%" height="100%">
  <feColorMatrix type="matrix" in="SourceGraphic" values="0 0 0 0 1 0 0 0 0 1 0 0 0 0 1 0 0 0 1 0"/>
</filter>
<mask id="mask0">
  <g filter="url(#alpha)">
<rect x="0" y="0" width="24" height="24" style="fill:rgb(0%,0%,0%);fill-opacity:0.996078;stroke:none;"/>
  </g>
</mask>
<clipPath id="clip1">
  <rect x="0" y="0" width="24" height="24"/>
</clipPath>
<g id="surface5" clip-path="url(#clip1)">
<path style=" stroke:none;fill-rule:evenodd;fill:rgb(100%,73.333333%,20%);fill-opacity:1;" d="M 10.898438 -0.0234375 C 11.617188 -0.0234375 12.335938 -0.0234375 13.054688 -0.0234375 C 17.257812 0.488281 20.421875 2.566406 22.546875 6.210938 C 23.328125 7.6875 23.804688 9.25 23.976562 10.898438 C 23.976562 11.617188 23.976562 12.335938 23.976562 13.054688 C 23.464844 17.257812 21.386719 20.421875 17.742188 22.546875 C 16.265625 23.328125 14.703125 23.804688 13.054688 23.976562 C 12.335938 23.976562 11.617188 23.976562 10.898438 23.976562 C 6.695312 23.464844 3.53125 21.386719 1.40625 17.742188 C 0.625 16.265625 0.148438 14.703125 -0.0234375 13.054688 C -0.0234375 12.335938 -0.0234375 11.617188 -0.0234375 10.898438 C 0.488281 6.695312 2.566406 3.53125 6.210938 1.40625 C 7.6875 0.625 9.25 0.148438 10.898438 -0.0234375 Z M 10.898438 -0.0234375 "/>
</g>
</defs>
<g id="surface1">
<use xlink:href="#surface5" mask="url(#mask0)"/>
<path style=" stroke:none;fill-rule:evenodd;fill:rgb(100%,99.607843%,99.607843%);fill-opacity:1;" d="M 11.554688 2.789062 C 12.296875 2.714844 12.96875 2.894531 13.570312 3.328125 C 13.96875 3.714844 14.125 4.183594 14.039062 4.734375 C 13.863281 8.523438 13.699219 12.3125 13.546875 16.101562 C 13.175781 17.117188 12.464844 17.5 11.414062 17.25 C 10.894531 17.027344 10.558594 16.644531 10.40625 16.101562 C 10.253906 12.3125 10.089844 8.523438 9.914062 4.734375 C 9.828125 3.964844 10.125 3.402344 10.804688 3.046875 C 11.054688 2.945312 11.304688 2.859375 11.554688 2.789062 Z M 11.554688 2.789062 "/>
<path style=" stroke:none;fill-rule:evenodd;fill:rgb(100%,99.607843%,99.215686%);fill-opacity:1;" d="M 11.648438 17.976562 C 12.609375 17.914062 13.242188 18.335938 13.546875 19.242188 C 13.652344 20.199219 13.253906 20.832031 12.351562 21.140625 C 11.347656 21.277344 10.699219 20.863281 10.40625 19.898438 C 10.296875 19.234375 10.507812 18.695312 11.039062 18.28125 C 11.234375 18.152344 11.4375 18.050781 11.648438 17.976562 Z M 11.648438 17.976562 "/>
</g>
</svg>
