<svg viewBox="0 0 32 32" fill="none" xmlns="http://www.w3.org/2000/svg">
<circle cx="16" cy="16.5" r="16" fill="#2e3135"/>
<circle cx="16" cy="16.5" r="15.5" stroke="#F8FAFC" stroke-opacity="0.1"/>
<path d="M7.14958 19.6682C8.06263 24.5637 12.7714 27.7921 17.6669 26.8791C22.5625 25.966 25.7909 21.2572 24.8778 16.3617C23.9648 11.4662 19.256 8.23774 14.3605 9.1508C9.46495 10.0639 6.23652 14.7726 7.14958 19.6682Z" fill="#c3c7cc"/>
<circle cx="2.25425" cy="2.25425" r="2.25425" transform="matrix(-0.983048 0.183347 0.183347 0.983048 8.97266 16.4326)" fill="#c3c7cc"/>
<ellipse cx="2.25425" cy="2.25425" rx="2.25425" ry="2.25425" transform="matrix(-0.983048 0.183347 0.183347 0.983048 26.7383 16.4321)" fill="#c3c7cc"/>
<path fill-rule="evenodd" clip-rule="evenodd" d="M6.97803 15.7476C8.32435 16.6743 10.0249 17.0597 11.7291 16.677C13.4577 16.2888 14.8453 15.1878 15.6618 13.7443C16.9659 16.0425 19.6263 17.3271 22.2955 16.7278C23.2553 16.5122 24.11 16.0769 24.8202 15.4852C24.7935 15.3312 24.7629 15.177 24.7283 15.0227C23.6174 10.0755 18.7778 6.94944 13.9189 8.04052C10.1318 8.89091 7.45071 12.052 6.97803 15.7476Z" fill="#1A1A1A"/>
<path fill-rule="evenodd" clip-rule="evenodd" d="M22.4964 10.705L9.3535 10.5807C9.6651 8.03891 12.5163 6.0681 15.9679 6.10076C19.4195 6.13343 22.2329 8.15785 22.4964 10.705Z" fill="#6f7277"/>
<rect x="7.16016" y="10.561" width="17.525" height="2.19062" rx="0.730207" transform="rotate(0.542194 7.16016 10.561)" fill="#989ca0"/>
<path d="M13.7605 7.70468C13.772 6.49489 14.762 5.52344 15.9718 5.53489C17.1816 5.54634 18.153 6.53635 18.1416 7.74614L18.1139 10.6668L13.7329 10.6254L13.7605 7.70468Z" fill="#2e3135"/>
</svg>
