<?xml version="1.0" encoding="UTF-8"?>
<svg xmlns="http://www.w3.org/2000/svg" xmlns:xlink="http://www.w3.org/1999/xlink" width="24px" height="24px" viewBox="0 0 24 24" version="1.1">
<defs>
<filter id="alpha" filterUnits="objectBoundingBox" x="0%" y="0%" width="100%" height="100%">
  <feColorMatrix type="matrix" in="SourceGraphic" values="0 0 0 0 1 0 0 0 0 1 0 0 0 0 1 0 0 0 1 0"/>
</filter>
<mask id="mask0">
  <g filter="url(#alpha)">
<rect x="0" y="0" width="24" height="24" style="fill:rgb(0%,0%,0%);fill-opacity:0.996078;stroke:none;"/>
  </g>
</mask>
<clipPath id="clip1">
  <rect x="0" y="0" width="24" height="24"/>
</clipPath>
<g id="surface5" clip-path="url(#clip1)">
<path style=" stroke:none;fill-rule:evenodd;fill:rgb(100%,25.490196%,25.490196%);fill-opacity:1;" d="M 10.898438 -0.0234375 C 11.617188 -0.0234375 12.335938 -0.0234375 13.054688 -0.0234375 C 17.226562 0.472656 20.375 2.519531 22.5 6.117188 C 23.300781 7.605469 23.792969 9.183594 23.976562 10.851562 C 23.976562 11.601562 23.976562 12.351562 23.976562 13.101562 C 23.378906 17.664062 21.019531 20.953125 16.898438 22.96875 C 15.660156 23.496094 14.378906 23.832031 13.054688 23.976562 C 12.335938 23.976562 11.617188 23.976562 10.898438 23.976562 C 6.726562 23.480469 3.578125 21.433594 1.453125 17.835938 C 0.652344 16.347656 0.160156 14.769531 -0.0234375 13.101562 C -0.0234375 12.351562 -0.0234375 11.601562 -0.0234375 10.851562 C 0.574219 6.289062 2.933594 3 7.054688 0.984375 C 8.292969 0.457031 9.574219 0.121094 10.898438 -0.0234375 Z M 10.898438 -0.0234375 "/>
</g>
</defs>
<g id="surface1">
<use xlink:href="#surface5" mask="url(#mask0)"/>
<path style=" stroke:none;fill-rule:evenodd;fill:rgb(100%,99.215686%,99.215686%);fill-opacity:1;" d="M 7.617188 6.820312 C 8.046875 6.753906 8.4375 6.839844 8.789062 7.078125 C 9.9375 8.226562 11.085938 9.375 12.234375 10.523438 C 13.414062 9.328125 14.609375 8.148438 15.820312 6.984375 C 16.632812 6.605469 17.234375 6.816406 17.625 7.617188 C 17.761719 8.050781 17.683594 8.441406 17.390625 8.789062 C 16.242188 9.9375 15.09375 11.085938 13.945312 12.234375 C 15.140625 13.414062 16.320312 14.609375 17.484375 15.820312 C 17.800781 16.421875 17.714844 16.960938 17.226562 17.4375 C 16.699219 17.792969 16.183594 17.777344 15.679688 17.390625 C 14.53125 16.242188 13.382812 15.09375 12.234375 13.945312 C 11.070312 15.109375 9.90625 16.273438 8.742188 17.4375 C 7.90625 17.894531 7.273438 17.699219 6.84375 16.851562 C 6.777344 16.488281 6.824219 16.144531 6.984375 15.820312 C 8.148438 14.609375 9.328125 13.414062 10.523438 12.234375 C 9.328125 11.054688 8.148438 9.859375 6.984375 8.648438 C 6.613281 7.832031 6.824219 7.222656 7.617188 6.820312 Z M 7.617188 6.820312 "/>
</g>
</svg>
