<svg width="46" height="47" viewBox="0 0 46 47" fill="none" xmlns="http://www.w3.org/2000/svg">
<g id="Group 34682">
<g id="Group 34680">
<g id="Group 34679">
<g id="Group 34678">
<g id="Group 34529">
<path id="Union" d="M6.64925 29.2333C8.33356 38.264 17.0198 44.2194 26.0506 42.5351C35.0813 40.8508 41.0368 32.1646 39.3524 23.1338C37.6681 14.1031 28.9819 8.14763 19.9511 9.83194C10.9204 11.5162 4.96494 20.2025 6.64925 29.2333Z" fill="#64748B"/>
<circle id="Ellipse 219" cx="4.15839" cy="4.15839" r="4.15839" transform="matrix(-0.983048 0.183347 0.183347 0.983048 10.0078 23.2695)" fill="#64748B"/>
<ellipse id="Ellipse 220" cx="4.15839" cy="4.15839" rx="4.15839" ry="4.15839" transform="matrix(-0.983048 0.183347 0.183347 0.983048 42.7832 23.2695)" fill="#64748B"/>
<g id="Group 33736">
<path id="Intersect" fill-rule="evenodd" clip-rule="evenodd" d="M6.33978 22.0203C8.82299 23.7288 11.9592 24.439 15.1019 23.7333C18.2952 23.0162 20.8574 20.9805 22.3628 18.3122C24.7685 22.5515 29.6762 24.9213 34.5999 23.8157C36.369 23.4184 37.9445 22.6164 39.2538 21.5263C39.2047 21.2427 39.1484 20.9587 39.0846 20.6747C37.0353 11.5486 28.1079 5.78201 19.1446 7.79472C12.1558 9.36406 7.20875 15.1995 6.33978 22.0203Z" fill="#1E293B"/>
</g>
<g id="Group 34498">
<path id="Subtract" fill-rule="evenodd" clip-rule="evenodd" d="M34.954 12.7026L10.7108 12.4732C11.2894 7.78744 16.5473 4.15507 22.9116 4.2153C29.276 4.27552 34.4641 8.00675 34.954 12.7026Z" fill="#475569"/>
<rect id="Rectangle 6290" x="6.66895" y="12.4375" width="32.3282" height="4.04102" rx="1.32284" transform="rotate(0.542194 6.66895 12.4375)" fill="#475569"/>
<path id="Rectangle 6293" d="M18.8436 7.16682C18.8647 4.93513 20.691 3.1431 22.9227 3.16422V3.16422C25.1544 3.18534 26.9464 5.0116 26.9253 7.2433L26.8743 12.6311L18.7926 12.5546L18.8436 7.16682Z" fill="#334155"/>
</g>
</g>
</g>
</g>
</g>
</g>
</svg>
